<svg width="152" height="52" viewBox="0 0 152 52" fill="none" xmlns="http://www.w3.org/2000/svg">
<path fill-rule="evenodd" clip-rule="evenodd" d="M28.7645 33.0976C33.5281 33.0976 37.9915 35.424 40.7194 39.3291C40.7884 39.4271 40.8558 39.5226 40.9214 39.6172C41.2258 40.0528 41.2999 40.6103 41.1201 41.1107C40.9402 41.612 40.5284 41.9939 40.0161 42.1362C40.0153 42.1371 40.0144 42.1371 40.0136 42.1371C30.8454 44.6859 21.1546 44.6859 11.9864 42.1371C11.9856 42.1371 11.9847 42.1371 11.9839 42.1362C11.4715 41.9939 11.0598 41.612 10.8799 41.1107C10.7001 40.6103 10.7742 40.0528 11.0786 39.6172C11.1442 39.5226 11.2115 39.4271 11.2806 39.3291C14.0085 35.424 18.4719 33.0976 23.2355 33.0976C25.0384 33.0976 26.9616 33.0976 28.7645 33.0976Z" fill="#00B37E" fill-opacity="0.5"/>
<path fill-rule="evenodd" clip-rule="evenodd" d="M22.6268 25.3879C18.6424 29.7807 11.9966 30.4848 7.18024 27.0255C6.06693 26.2251 4.92378 25.4041 3.80621 24.602C1.87965 23.2184 0.781686 20.956 0.885686 18.587C0.989686 16.218 2.28201 14.0605 4.32195 12.8517C7.92103 10.7171 12.0606 8.26374 15.7509 6.07633C22.065 2.33233 29.923 2.35193 36.2192 6.12577C39.8857 8.32426 43.9911 10.7853 47.5501 12.919C49.5568 14.1218 50.8278 16.2513 50.9344 18.5887C51.0401 20.9262 49.9677 23.1613 48.0786 24.5415C46.9756 25.347 45.8469 26.1722 44.7464 26.9761C39.9811 30.4567 33.3584 29.7815 29.3936 25.411C29.3859 25.4033 29.3791 25.3948 29.3714 25.3871C28.5088 24.4357 27.2846 23.8936 26 23.8936C24.7153 23.8936 23.4912 24.4357 22.6285 25.3871C22.6276 25.3871 22.6276 25.3879 22.6268 25.3879Z" fill="#00B37E" fill-opacity="0.5"/>
<path fill-rule="evenodd" clip-rule="evenodd" d="M19.4783 27.519C20.5766 24.9196 23.1211 23.2263 25.9434 23.2177C28.7654 23.2092 31.3201 24.8868 32.4343 27.4797C33.3508 29.6132 34.2201 31.6372 34.9294 33.288C35.1825 33.8778 35.0337 34.5631 34.558 34.9944C34.0829 35.4254 33.386 35.5072 32.8237 35.1978C32.5372 35.04 32.2443 34.8787 31.9488 34.7163C28.1928 32.649 23.6362 32.6654 19.8952 34.7591C19.6499 34.8967 19.4067 35.033 19.1674 35.1667C18.6073 35.4803 17.9095 35.4031 17.4313 34.975C16.9527 34.5468 16.7992 33.8619 17.0492 33.2704C17.7406 31.6333 18.5867 29.6307 19.4783 27.519Z" fill="#00B37E"/>
<path d="M75.2596 29.2341C75.2596 28.674 75.1331 28.1559 74.8799 27.6798C74.6409 27.1897 74.1416 26.7486 73.3822 26.3566C72.6369 25.9505 71.5119 25.6004 70.0072 25.3064C68.7415 25.0403 67.5954 24.7252 66.5688 24.3612C65.5563 23.9971 64.6915 23.556 63.9743 23.0379C63.2711 22.5198 62.7297 21.9107 62.35 21.2106C61.9703 20.5104 61.7805 19.6913 61.7805 18.7531C61.7805 17.8569 61.9774 17.0097 62.3711 16.2116C62.7789 15.4134 63.3485 14.7063 64.0797 14.0902C64.8251 13.474 65.718 12.9909 66.7587 12.6409C67.7993 12.2908 68.9595 12.1158 70.2392 12.1158C72.0674 12.1158 73.6283 12.4378 74.9221 13.082C76.2159 13.7261 77.2073 14.5873 77.8964 15.6655C78.5855 16.7297 78.93 17.9129 78.93 19.2152H75.0276C75.0276 18.585 74.8377 17.9759 74.458 17.3878C74.0924 16.7857 73.551 16.2886 72.8338 15.8965C72.1307 15.5044 71.2658 15.3084 70.2392 15.3084C69.1564 15.3084 68.2775 15.4764 67.6025 15.8125C66.9415 16.1346 66.4563 16.5476 66.147 17.0517C65.8516 17.5558 65.704 18.0879 65.704 18.6481C65.704 19.0681 65.7743 19.4462 65.9149 19.7823C66.0696 20.1043 66.3368 20.4054 66.7165 20.6854C67.0962 20.9515 67.6306 21.2036 68.3197 21.4416C69.0087 21.6796 69.8877 21.9177 70.9564 22.1557C72.8268 22.5758 74.3666 23.0799 75.576 23.668C76.7854 24.2561 77.6854 24.9773 78.2761 25.8315C78.8667 26.6856 79.162 27.7218 79.162 28.9401C79.162 29.9343 78.9511 30.8444 78.5292 31.6706C78.1214 32.4968 77.5237 33.2109 76.7362 33.813C75.9628 34.4011 75.0346 34.8632 73.9518 35.1993C72.883 35.5213 71.6807 35.6824 70.3447 35.6824C68.3337 35.6824 66.6321 35.3253 65.2399 34.6112C63.8477 33.897 62.793 32.9728 62.0758 31.8386C61.3586 30.7044 61 29.5072 61 28.2469H64.9235C64.9798 29.3111 65.2891 30.1583 65.8516 30.7884C66.4142 31.4045 67.1032 31.8456 67.9189 32.1117C68.7345 32.3637 69.5431 32.4898 70.3447 32.4898C71.4135 32.4898 72.3064 32.3497 73.0236 32.0697C73.7549 31.7896 74.3104 31.4045 74.6901 30.9144C75.0698 30.4243 75.2596 29.8642 75.2596 29.2341Z" fill="white"/>
<path d="M88.1903 3V35.2623H84.2879V3H88.1903ZM87.2622 23.0379L85.6379 22.9749C85.652 21.4206 85.884 19.9853 86.334 18.6691C86.784 17.3388 87.4169 16.1836 88.2325 15.2034C89.0481 14.2232 90.0185 13.467 91.1435 12.9349C92.2826 12.3888 93.5412 12.1158 94.9193 12.1158C96.0443 12.1158 97.0569 12.2698 97.9569 12.5779C98.8569 12.8719 99.6233 13.348 100.256 14.0061C100.903 14.6643 101.395 15.5184 101.733 16.5686C102.07 17.6048 102.239 18.8721 102.239 20.3704V35.2623H98.3155V20.3284C98.3155 19.1381 98.1397 18.186 97.7881 17.4718C97.4366 16.7437 96.9233 16.2186 96.2483 15.8965C95.5732 15.5605 94.7435 15.3924 93.7592 15.3924C92.7888 15.3924 91.9029 15.5955 91.1013 16.0015C90.3138 16.4076 89.6317 16.9677 89.0552 17.6819C88.4927 18.396 88.0497 19.2152 87.7262 20.1393C87.4169 21.0495 87.2622 22.0157 87.2622 23.0379Z" fill="white"/>
<path d="M107.048 24.1511V23.668C107.048 22.0297 107.288 20.5104 107.766 19.1101C108.244 17.6959 108.933 16.4706 109.833 15.4344C110.733 14.3842 111.823 13.5721 113.102 12.998C114.382 12.4098 115.817 12.1158 117.406 12.1158C119.009 12.1158 120.45 12.4098 121.73 12.998C123.024 13.5721 124.121 14.3842 125.021 15.4344C125.935 16.4706 126.631 17.6959 127.109 19.1101C127.587 20.5104 127.826 22.0297 127.826 23.668V24.1511C127.826 25.7894 127.587 27.3087 127.109 28.709C126.631 30.1093 125.935 31.3345 125.021 32.3847C124.121 33.4209 123.031 34.2331 121.751 34.8212C120.485 35.3953 119.051 35.6824 117.448 35.6824C115.845 35.6824 114.403 35.3953 113.124 34.8212C111.844 34.2331 110.747 33.4209 109.833 32.3847C108.933 31.3345 108.244 30.1093 107.766 28.709C107.288 27.3087 107.048 25.7894 107.048 24.1511ZM110.951 23.668V24.1511C110.951 25.2853 111.084 26.3566 111.352 27.3648C111.619 28.3589 112.02 29.2411 112.554 30.0113C113.102 30.7814 113.784 31.3905 114.6 31.8386C115.416 32.2727 116.365 32.4898 117.448 32.4898C118.517 32.4898 119.452 32.2727 120.253 31.8386C121.069 31.3905 121.744 30.7814 122.278 30.0113C122.813 29.2411 123.214 28.3589 123.481 27.3648C123.762 26.3566 123.903 25.2853 123.903 24.1511V23.668C123.903 22.5478 123.762 21.4906 123.481 20.4964C123.214 19.4882 122.806 18.599 122.257 17.8289C121.723 17.0447 121.048 16.4286 120.232 15.9805C119.431 15.5324 118.488 15.3084 117.406 15.3084C116.337 15.3084 115.395 15.5324 114.579 15.9805C113.777 16.4286 113.102 17.0447 112.554 17.8289C112.02 18.599 111.619 19.4882 111.352 20.4964C111.084 21.4906 110.951 22.5478 110.951 23.668Z" fill="white"/>
<path d="M136.622 16.9047V44H132.699V12.5359H136.285L136.622 16.9047ZM152 23.71V24.1511C152 25.8034 151.803 27.3367 151.409 28.751C151.016 30.1513 150.439 31.3695 149.68 32.4057C148.934 33.4419 148.013 34.2471 146.916 34.8212C145.819 35.3953 144.561 35.6824 143.14 35.6824C141.692 35.6824 140.412 35.4443 139.301 34.9682C138.19 34.4921 137.248 33.799 136.475 32.8888C135.701 31.9787 135.083 30.8864 134.618 29.6122C134.168 28.3379 133.859 26.9027 133.69 25.3064V22.9539C133.859 21.2736 134.175 19.7683 134.64 18.438C135.104 17.1078 135.715 15.9735 136.475 15.0353C137.248 14.0832 138.183 13.362 139.28 12.8719C140.377 12.3678 141.643 12.1158 143.077 12.1158C144.512 12.1158 145.784 12.3958 146.895 12.9559C148.006 13.502 148.941 14.2862 149.701 15.3084C150.46 16.3306 151.03 17.5558 151.409 18.9841C151.803 20.3984 152 21.9737 152 23.71ZM148.076 24.1511V23.71C148.076 22.5758 147.957 21.5116 147.718 20.5174C147.479 19.5092 147.106 18.627 146.6 17.8709C146.108 17.1008 145.475 16.4986 144.701 16.0645C143.928 15.6165 143.007 15.3924 141.938 15.3924C140.954 15.3924 140.096 15.5605 139.365 15.8965C138.647 16.2326 138.036 16.6877 137.529 17.2618C137.023 17.8219 136.608 18.466 136.285 19.1942C135.976 19.9083 135.743 20.6504 135.589 21.4206V26.8607C135.87 27.8408 136.264 28.765 136.77 29.6332C137.276 30.4874 137.951 31.1805 138.795 31.7126C139.639 32.2307 140.701 32.4898 141.98 32.4898C143.035 32.4898 143.942 32.2727 144.701 31.8386C145.475 31.3905 146.108 30.7814 146.6 30.0113C147.106 29.2411 147.479 28.3589 147.718 27.3648C147.957 26.3566 148.076 25.2853 148.076 24.1511Z" fill="white"/>
</svg>
